<?xml version="1.0" encoding="UTF-8"?>
<svg width="151px" height="39px" viewBox="0 0 151 39" version="1.1" xmlns="http://www.w3.org/2000/svg" xmlns:xlink="http://www.w3.org/1999/xlink">
    <!-- Generator: Sketch 47.1 (45422) - http://www.bohemiancoding.com/sketch -->
    <title>logo_white</title>
    <desc>Created with Sketch.</desc>
    <defs>
        <polygon id="path-1" points="7.89001856e-05 37.4571429 28.3501398 37.4571429 28.3501398 0.260191429 7.89001856e-05 0.260191429"></polygon>
        <polygon id="path-3" points="10.1754161 12.8296686 10.1754161 0.449268571 0.316493796 0.449268571 0.316493796 12.8296686 10.1754161 12.8296686"></polygon>
    </defs>
    <g id="Symbols" stroke="none" stroke-width="1" fill="none" fill-rule="evenodd">
        <g id="TOP-/-nav" transform="translate(-375.000000, -54.000000)">
            <g id="logo" transform="translate(374.995214, 54.317703)">
                <g id="Group-3" stroke-width="1" transform="translate(0.000000, 0.282774)">
                    <mask id="mask-2" fill="white">
                        <use xlink:href="#path-1"></use>
                    </mask>
                    <g id="Clip-2"></g>
                    <path d="M25.8261252,4.91790571 L25.8128989,26.2798771 L17.3745339,14.8391629 L25.8261252,4.91790571 Z M13.1173259,14.8505629 L3.28028212,20.3915057 L5.82689161,11.2123343 L13.1173259,14.8505629 Z M8.18337336,9.60276286 L23.0976544,4.25507714 L15.452315,13.2301343 L8.18337336,9.60276286 Z M14.6780266,16.8330771 L16.0337201,33.3831629 L3.46875657,23.1475914 L14.6780266,16.8330771 Z M25.2717237,29.7720771 L18.617804,34.03622 L17.3938223,19.0919057 L25.2717237,29.7720771 Z M28.3495887,1.48433429 C28.3490376,1.44579143 28.3468332,1.40670571 28.3424245,1.36924857 L28.3363624,1.32582 C28.3319536,1.29324857 28.3258916,1.26176286 28.3181763,1.22756286 L28.3088077,1.18847714 C28.2994391,1.15319143 28.2878661,1.11736286 28.2740887,1.07936286 L28.2674755,1.05927714 C28.2498405,1.01530571 28.2305522,0.971877143 28.2079573,0.928991429 C28.1870157,0.88882 28.1627675,0.849734286 28.1368661,0.811734286 L28.1159245,0.78242 C28.096085,0.755277143 28.0751434,0.728677143 28.0525485,0.702077143 L28.0216872,0.667334286 C28.0007456,0.644534286 27.9787018,0.62282 27.9500449,0.59622 C27.9395741,0.586448571 27.9291033,0.576134286 27.9175303,0.566905714 L27.8998953,0.55062 C27.8833624,0.537048571 27.8662785,0.524562857 27.8359682,0.502305714 C27.828804,0.496877143 27.8210887,0.490905714 27.8067602,0.480591429 C27.7665303,0.453991429 27.7257493,0.42902 27.6783551,0.404048571 C27.6381252,0.382877143 27.596242,0.36442 27.5554609,0.348134286 L27.5229464,0.336734286 C27.4893296,0.324248571 27.4546106,0.313934286 27.4198916,0.304162857 L27.3818661,0.294934286 C27.3476982,0.286791429 27.3129792,0.280277143 27.2699938,0.273762857 L27.2424391,0.269962857 C27.1989026,0.264534286 27.1553661,0.261277143 27.103012,0.260191429 C27.0572712,0.261277143 27.0109792,0.26182 26.963585,0.266705714 L26.9255595,0.272134286 C26.8919427,0.275934286 26.8594281,0.281362857 26.824158,0.28842 L26.7811726,0.298191429 C26.748658,0.306334286 26.7161434,0.316648571 26.6830777,0.326962857 L26.6648916,0.332391429 L4.58472372,8.24887714 C4.5759062,8.25213429 4.56819088,8.25593429 4.55827117,8.25973429 C4.52851204,8.27167714 4.49985511,8.28307714 4.46238066,8.30153429 L4.42986606,8.31782 C4.39790255,8.33410571 4.36649015,8.35202 4.33287336,8.37319143 L4.31138066,8.38676286 C4.27225292,8.41282 4.23422737,8.44050571 4.20226387,8.46819143 L4.1884865,8.48013429 C4.15707409,8.50727714 4.12621277,8.53604857 4.09810693,8.56644857 L4.07385876,8.59304857 C4.05181496,8.61802 4.02977117,8.64407714 4.00882956,8.67176286 L3.98127482,8.70976286 C3.96419088,8.73364857 3.94765803,8.75916286 3.93222737,8.78522 C3.92340985,8.80042 3.91459234,8.81507714 3.90522372,8.83244857 L3.89254854,8.85470571 C3.88428212,8.86936286 3.87766898,8.88510571 3.87105584,8.90030571 L3.84680766,8.95622 C3.82807044,9.00182 3.81208869,9.04796286 3.7994135,9.09410571 L0.0437018248,22.6329629 C0.0293733577,22.6850771 0.0194536496,22.7382771 0.0117383212,22.7931057 L0.00732956204,22.8289343 C-0.00424343066,22.9358771 -0.00203905109,23.0433629 0.0144937956,23.1497629 L0.0200047445,23.1817914 C0.0288222628,23.2311914 0.0403952555,23.2795057 0.0585813869,23.3381343 C0.0751142336,23.38862 0.0949536496,23.4374771 0.118099635,23.4863343 L0.130774818,23.5113057 L0.29224562,23.4423629 L0.142898905,23.5346486 C0.150063139,23.5493057 0.157227372,23.56342 0.165493796,23.57862 C0.172658029,23.59002 0.179822263,23.6003343 0.191395255,23.61662 C0.205172628,23.6388771 0.22005219,23.6605914 0.235482847,23.6817629 C0.255322263,23.7094486 0.276814964,23.7360486 0.298858759,23.7621057 C0.313738321,23.7794771 0.329168978,23.7968486 0.344599635,23.8131343 C0.37105219,23.84082 0.398606934,23.8657914 0.429468248,23.8934771 C0.438285766,23.9021629 0.44765438,23.9108486 0.456471898,23.9179057 L16.7253442,37.1706771 L16.7451836,37.1853343 C16.7931288,37.2227914 16.8449318,37.2575343 16.8967347,37.2873914 L16.9231872,37.3020486 C16.9788478,37.3324486 17.037815,37.3590486 17.0984354,37.3807629 L17.1221325,37.3894486 C17.1849573,37.41062 17.2483332,37.4269057 17.3106069,37.4377629 L17.3309974,37.4404771 C17.4026398,37.4518771 17.467669,37.4573057 17.5310449,37.4573057 L17.5464755,37.4573057 C17.5751325,37.4567629 17.6037894,37.4556771 17.6324464,37.4529629 C17.6462237,37.4518771 17.65945,37.4502486 17.6831471,37.4464486 L17.728888,37.4404771 C17.8363515,37.4236486 17.9416106,37.3932486 18.0402566,37.34982 L18.0711179,37.3362486 C18.1284318,37.3096486 18.1780303,37.2825057 18.2221179,37.2542771 L27.758815,31.1427914 C27.7687347,31.1362771 27.7786544,31.1286771 27.7863697,31.1227057 L27.8128223,31.1053343 C27.8249464,31.0971914 27.8365193,31.0879629 27.8475412,31.0787343 L27.8987931,31.03802 C27.933512,31.0081629 27.9671288,30.9766771 28.0007456,30.9413914 C28.0343624,30.90502 28.0652237,30.8675629 28.0944318,30.8273914 L28.1087602,30.80622 C28.1313551,30.7741914 28.1517456,30.7421629 28.1710339,30.7085057 L28.1892201,30.6743057 C28.2068551,30.6422771 28.2222858,30.6091629 28.2393697,30.5684486 L28.2498405,30.5434771 C28.2669245,30.4995057 28.281804,30.4544486 28.2950303,30.4028771 C28.3060522,30.3599914 28.3143186,30.31602 28.3203807,30.2720486 L28.3253405,30.2302486 C28.3286471,30.1960486 28.3308515,30.1613057 28.3319536,30.1281914 L28.3336069,30.1086486 L28.3501398,1.50279143 L28.3495887,1.48433429 Z" id="Fill-1" fill="#25282A" mask="url(#mask-2)"></path>
                </g>
                <path d="M59.2249004,18.47484 L59.2249004,21.0745829 L66.1378347,21.0745829 C66.255769,21.0745829 66.412831,21.2401543 66.412831,21.3633829 L66.412831,23.1379829 C66.412831,23.2617543 66.255769,23.4267829 66.1378347,23.4267829 L56.7901631,23.4267829 C56.6716777,23.4267829 56.5537434,23.3035543 56.5537434,23.17924 L56.5537434,11.2939257 C56.5537434,11.1706971 56.6716777,11.0463829 56.7901631,11.0463829 L66.0204515,11.0463829 C66.1378347,11.0463829 66.2954478,11.2114114 66.2954478,11.3357257 L66.2954478,13.1097829 C66.2954478,13.2340971 66.1378347,13.3985829 66.0204515,13.3985829 L59.2249004,13.3985829 L59.2249004,16.12264 L65.4307799,16.12264 C65.5487142,16.12264 65.7057763,16.2876686 65.7057763,16.41144 L65.7057763,18.18604 C65.7057763,18.3092686 65.5487142,18.47484 65.4307799,18.47484 L59.2249004,18.47484 Z" id="Fill-4" fill="#25282A"></path>
                <path d="M85.6400358,11.0466 C85.7579701,11.0466 85.8753533,11.1709143 85.8753533,11.2941429 L85.8753533,23.1794571 C85.8753533,23.3032286 85.7579701,23.427 85.6400358,23.427 L83.440065,23.427 C83.3221307,23.427 83.2047474,23.3032286 83.2047474,23.1794571 L83.2047474,15.6066 L83.1457803,15.6066 C83.1457803,15.6066 82.9099117,16.226 82.4194372,16.9273714 L78.9431307,22.0649714 L75.4469847,16.9273714 C74.9757985,16.226 74.7399299,15.6066 74.7399299,15.6066 L74.6809628,15.6066 L74.6809628,23.1794571 C74.6809628,23.3032286 74.5630285,23.427 74.4456453,23.427 L72.2462255,23.427 C72.1277401,23.427 72.0103569,23.3032286 72.0103569,23.1794571 L72.0103569,11.2941429 C72.0103569,11.1709143 72.1277401,11.0466 72.2462255,11.0466 L73.9744591,11.0466 C74.1116818,11.0466 74.2494555,11.1084857 74.3469993,11.2528857 L78.9232912,17.9794286 L78.962419,17.9794286 L83.5387109,11.2528857 C83.6368058,11.1084857 83.7740285,11.0466 83.9118022,11.0466 L85.6400358,11.0466 Z" id="Fill-6" fill="#25282A"></path>
                <path d="M102.088675,23.4268371 L96.0789854,16.9896371 C95.4507372,16.32898 94.7431314,15.4006943 94.7431314,15.4006943 L94.6841642,15.4006943 L94.6841642,23.1792943 C94.6841642,23.3030657 94.566781,23.4268371 94.4488467,23.4268371 L92.249427,23.4268371 C92.1314927,23.4268371 92.0135584,23.3030657 92.0135584,23.1792943 L92.0135584,11.29398 C92.0135584,11.1707514 92.1314927,11.0464371 92.249427,11.0464371 L94.0559161,11.0464371 L100.006639,17.4016657 C100.654726,18.0824086 101.38162,19.07258 101.38162,19.07258 L101.459876,19.07258 L101.459876,11.29398 C101.459876,11.1707514 101.57781,11.0464371 101.695745,11.0464371 L103.895164,11.0464371 C104.013099,11.0464371 104.131033,11.1707514 104.131033,11.29398 L104.131033,23.1792943 C104.131033,23.3030657 104.013099,23.4268371 103.895164,23.4268371 L102.088675,23.4268371 Z" id="Fill-8" fill="#25282A"></path>
                <path d="M111.20136,17.2369629 C111.20136,19.7335629 112.949433,21.2807057 115.031469,21.2807057 C117.112955,21.2807057 118.861028,19.7335629 118.861028,17.2369629 C118.861028,14.73982 117.112955,13.1926771 115.031469,13.1926771 C112.949433,13.1926771 111.20136,14.73982 111.20136,17.2369629 M121.531634,17.2369629 C121.531634,21.11622 118.566192,23.6329057 115.031469,23.6329057 C111.496196,23.6329057 108.530754,21.11622 108.530754,17.2369629 C108.530754,13.4195914 111.496196,10.8404771 115.031469,10.8404771 C118.566192,10.8404771 121.531634,13.4195914 121.531634,17.2369629" id="Fill-10" fill="#25282A"></path>
                <path d="M124.61523,13.3988 C124.497847,13.3988 124.340234,13.2337714 124.340234,13.11 L124.340234,11.3354 C124.340234,11.2116286 124.497847,11.0466 124.61523,11.0466 L135.770493,11.0466 C135.888427,11.0466 136.045489,11.2116286 136.045489,11.3354 L136.045489,13.11 C136.045489,13.2337714 135.888427,13.3988 135.770493,13.3988 L131.528164,13.3988 L131.528164,23.1794571 C131.528164,23.3032286 131.410781,23.427 131.292847,23.427 L129.093427,23.427 C128.975493,23.427 128.857558,23.3032286 128.857558,23.1794571 L128.857558,13.3988 L124.61523,13.3988 Z" id="Fill-12" fill="#25282A"></path>
                <g id="Group-16" stroke-width="1" transform="translate(140.529197, 10.597060)">
                    <mask id="mask-4" fill="white">
                        <use xlink:href="#path-3"></use>
                    </mask>
                    <g id="Clip-15"></g>
                    <path d="M2.98765073,7.90161143 L2.98765073,10.4774686 L9.90058504,10.4774686 C10.0185193,10.4774686 10.1755814,10.64304 10.1755814,10.7662686 L10.1755814,12.5408686 C10.1755814,12.66464 10.0185193,12.8296686 9.90058504,12.8296686 L0.552362409,12.8296686 C0.434428102,12.8296686 0.316493796,12.70644 0.316493796,12.5821257 L0.316493796,0.697354286 C0.316493796,0.573582857 0.434428102,0.449268571 0.552362409,0.449268571 L9.78265073,0.449268571 C9.90058504,0.449268571 10.0576471,0.614297143 10.0576471,0.738611429 L10.0576471,2.51266857 C10.0576471,2.63698286 9.90058504,2.80146857 9.78265073,2.80146857 L2.98765073,2.80146857 L2.98765073,5.54941143 L9.19353029,5.54941143 C9.3114646,5.54941143 9.46852664,5.71444 9.46852664,5.83821143 L9.46852664,7.61281143 C9.46852664,7.73604 9.3114646,7.90161143 9.19353029,7.90161143 L2.98765073,7.90161143 Z" id="Fill-14" fill="#25282A" mask="url(#mask-4)"></path>
                </g>
                <path d="M50.5537529,16.2169886 L44.1439682,16.2169886 C43.962658,16.2169886 43.8155157,16.3717029 43.8155157,16.5622457 L43.8155157,18.1294743 C43.8155157,18.3200171 43.962658,18.4747314 44.1439682,18.4747314 L48.4849427,18.4747314 C48.4849427,19.60116 47.7574974,21.28076 44.9480157,21.28076 C42.6995485,21.28076 41.1179062,19.6055029 41.1179062,17.2370171 C41.1179062,14.8679886 42.8059099,13.1927314 44.9480157,13.1927314 C45.9846252,13.1927314 46.9584099,13.5331029 47.5695741,14.2605314 C47.6638113,14.37236 47.8021361,14.4320743 47.9443186,14.4320743 L50.2748989,14.4320743 C50.4363697,14.4320743 50.5471398,14.2605314 50.4887237,14.1020171 C49.7089245,11.9810743 47.5960266,10.8405314 44.8008734,10.8405314 C41.0909026,10.8405314 38.4473004,13.7041029 38.4473004,17.2364743 C38.4473004,20.7693886 40.9448624,23.63296 44.8008734,23.63296 C48.8916507,23.63296 51.5556434,21.3545886 51.1566507,16.22296 L50.5537529,16.2169886 Z" id="Fill-17" fill="#25282A"></path>
            </g>
        </g>
    </g>
</svg>